<?xml version="1.0" encoding="utf-8"?>
<!-- Generator: Adobe Illustrator 20.1.0, SVG Export Plug-In . SVG Version: 6.00 Build 0)  -->
<svg version="1.1" id="Layer_1" xmlns="http://www.w3.org/2000/svg" xmlns:xlink="http://www.w3.org/1999/xlink" x="0px" y="0px"
	 viewBox="0 0 174.8 118.2" style="enable-background:new 0 0 174.8 118.2;" xml:space="preserve">
<g>
	<g>
		<g style="opacity:0.4;">
			
				<radialGradient id="SVGID_1_" cx="74.8407" cy="45.4902" r="97.5782" gradientTransform="matrix(1.0061 0 0 1 -4.5428 0)" gradientUnits="userSpaceOnUse">
				<stop  offset="0" style="stop-color:#FFFFFF"/>
				<stop  offset="1.515236e-02" style="stop-color:#F3F9FC"/>
				<stop  offset="7.802506e-02" style="stop-color:#C8E2F3"/>
				<stop  offset="0.1388" style="stop-color:#A6D0EC"/>
				<stop  offset="0.1962" style="stop-color:#8DC3E6"/>
				<stop  offset="0.2488" style="stop-color:#7EBBE3"/>
				<stop  offset="0.2921" style="stop-color:#79B8E2"/>
				<stop  offset="0.6461" style="stop-color:#506BB1"/>
				<stop  offset="0.7538" style="stop-color:#8162AA"/>
				<stop  offset="0.9944" style="stop-color:#F94B98"/>
			</radialGradient>
			<path style="fill:url(#SVGID_1_);" d="M129.6,30.4c12.2,3.8,16.9,11,16.4,19.8c-0.6,10.8-3.5,19-7.4,30
				c-3.9,11-14.9,25.5-39.3,28.6s-42.7-4.1-48.6-6.4c-5.9-2.3-11.6-8.1-14.1-14c-3.4-8-5.7-20-7.5-32.5C27.2,43.4,29,26.3,44,24
				C70.3,20.1,102.3,22,129.6,30.4z"/>
		</g>
	</g>
	<g>
		<path style="fill:#FFFFFF;" d="M131,21.5c-19.6-4.7-57.1-9.2-87.8-8.1c-29.1,1-38.2,3.3-38.3,3.3c-4.5,1.1-4.4,2.3-4.1,4.5l0,0.5
			c0.1,1.2,0.5,2.3,0.9,3.5c0.4,1.2,0.9,2.7,1.2,4.4C2.9,30.1,3,30.7,3,31.3c0.3,3.1,0.6,6.9,4.4,9.4c5,3.1,6.3,4.8,8,10.6
			c0.4,1.4,1.2,4,2.1,7.3c2.9,10,7.7,26.8,9.8,31.6c2.7,6.1,6,13.7,19.9,19.9c12.8,5.7,41,12.9,65.6,3.8c25.4-9.3,35.2-28.1,42-46.8
			c7.5-20.6,12-21,18.1-21c0.1,0,0.1,0,0.2,0h1V29.6c-11,0-18.8-2.2-33.8-5.9C137.7,23,134.3,22.3,131,21.5z M145.3,50.3
			c-0.6,10.7-3.6,19.1-7.3,29.8l-0.1,0.1c-2.6,7.5-11.6,25.2-39.1,28.7c-4.2,0.5-8.1,0.8-11.9,0.8c-18.1,0-31.3-5.2-36.2-7.1
			c-5.8-2.3-11.6-8.1-14.2-14.1C32.7,79.6,30.4,65.7,29,56c-2-14.1,0.9-30,15.1-32.1c27.1-4.1,58.8-1.7,84.8,6.4
			C140.2,33.8,145.9,40.7,145.3,50.3z"/>
		<path style="fill:#2D3746;" d="M87.1,118.6c-16.4,0-31.5-4.4-39.9-8.1c-14-6.2-17.4-13.9-20.1-20.1c-2.1-4.8-7-21.6-9.8-31.6
			c-0.9-3.3-1.7-5.9-2.1-7.3c-1.7-5.6-3-7.3-7.8-10.4c-4.1-2.6-4.4-6.5-4.6-9.7c-0.1-0.6-0.1-1.2-0.2-1.8c-0.2-1.7-0.7-3.1-1.1-4.3
			c-0.4-1.2-0.8-2.3-0.9-3.6l0-0.5c-0.3-2.5-0.2-3.8,4.4-5c0.1,0,9.3-2.3,38.4-3.3c30.8-1.1,68.3,3.4,87.9,8.1v0
			c1.6,0.4,3.2,0.8,4.8,1.1c1.7,0.4,3.3,0.8,4.8,1.1l2.3,0.6c13.5,3.3,21.7,5.3,31.4,5.3h0.4v16.6H173c-5.4,0-10,0-17.7,21.1
			c-7,19.1-16.9,38.1-42.2,47.4C104.6,117.4,95.6,118.6,87.1,118.6z M52.7,13.7c-3.2,0-6.4,0.1-9.5,0.2C14.3,14.8,5,17.1,5,17.1
			c-4.1,1-4,1.9-3.8,4.1l0,0.5c0.1,1.2,0.5,2.2,0.9,3.4c0.4,1.3,0.9,2.7,1.2,4.5c0.1,0.6,0.1,1.2,0.2,1.8c0.2,3,0.5,6.7,4.2,9.1
			c5.1,3.2,6.4,4.9,8.2,10.8c0.4,1.4,1.2,4,2.1,7.3c2.9,10,7.7,26.7,9.8,31.5c2.7,6.1,6,13.6,19.7,19.7c12.7,5.7,40.8,12.8,65.2,3.8
			c25-9.2,34.8-28,41.7-46.9C161.9,46.4,166.4,45,173,45h0.9V30.1c-9.6-0.1-17.8-2.1-31.2-5.4l-2.3-0.6c-1.4-0.4-3.1-0.7-4.7-1.1
			c-1.6-0.4-3.2-0.7-4.8-1.1l0,0C113.3,17.7,81.3,13.7,52.7,13.7z M86.9,110.1c-18.2,0-31.4-5.2-36.4-7.1
			c-5.9-2.3-11.8-8.2-14.5-14.4c-3.8-8.9-6.1-22.8-7.5-32.5c-2-14.3,0.9-30.4,15.4-32.6c27.2-4.1,58.9-1.7,84.9,6.4
			c11.5,3.6,17.3,10.7,16.7,20.5l0,0c-0.6,10.8-3.6,19.2-7.3,29.9l-0.1,0.1c-2.6,7.5-11.7,25.5-39.5,29
			C94.9,109.8,90.9,110.1,86.9,110.1C86.9,110.1,86.9,110.1,86.9,110.1z M71.4,22.4c-9.3,0-18.5,0.6-27.2,2
			C30.3,26.4,27.5,42,29.5,55.9c1.4,9.7,3.7,23.5,7.4,32.3c2.5,6,8.3,11.7,14,13.9c4.9,1.9,18.1,7.1,36.1,7.1c0,0,0,0,0,0
			c3.9,0,7.9-0.3,11.9-0.7c27.3-3.4,36.2-21,38.8-28.4l0.1-0.1c3.7-10.6,6.6-19,7.3-29.7l0,0c0.5-9.4-5-16.1-16.1-19.6
			C111.2,25.2,91,22.4,71.4,22.4z"/>
	</g>
	<linearGradient id="SVGID_2_" gradientUnits="userSpaceOnUse" x1="60.3328" y1="36.1651" x2="153.6127" y2="36.1651">
		<stop  offset="0" style="stop-color:#FFFFFF"/>
		<stop  offset="1" style="stop-color:#0C51CB"/>
	</linearGradient>
	<polygon style="fill:url(#SVGID_2_);" points="121.8,8.5 127.8,14.5 89.3,52.8 68.7,32.4 60.3,40.7 92.1,72.3 100.5,64 100.5,63.9 
		139,25.7 145.1,31.6 153.6,0 	"/>
</g>
</svg>
