<svg id="Layer_1" data-name="Layer 1" xmlns="http://www.w3.org/2000/svg" xmlns:xlink="http://www.w3.org/1999/xlink" viewBox="0 0 513 310.22"><defs><style>.cls-1{opacity:0.4;}.cls-2{fill:url(#radial-gradient);}.cls-3{fill:#fff;}.cls-4{fill:#2d3746;}</style><radialGradient id="radial-gradient" cx="206.02" cy="95.54" r="285.03" gradientUnits="userSpaceOnUse"><stop offset="0" stop-color="#d6dce4"/><stop offset="0.08" stop-color="#b7c4d3"/><stop offset="0.16" stop-color="#9fb1c6"/><stop offset="0.23" stop-color="#90a5be"/><stop offset="0.29" stop-color="#8ba1bb"/><stop offset="0.62" stop-color="#8ba1bb"/><stop offset="0.99" stop-color="#0058db"/></radialGradient></defs><title>lens-bifocals</title><g class="cls-1"><path class="cls-2" d="M376.73,51.53c35.42,11,49.06,32.05,47.57,57.81C422.48,140.77,414,164.9,402.84,197s-43.26,74.59-114.12,83.54a282,282,0,0,1-141-18.65c-17.15-6.71-33.67-23.74-41-40.88-9.93-23.23-16.56-58.43-21.78-95s-.22-86.56,43.44-93.12C204.64,21.43,297.48,26.91,376.73,51.53Z" transform="translate(0 0.18)"/></g><path class="cls-3" d="M316.1,197.5l-.09,1.66c-39.58,3.92-105.55.16-145.58-8l.09-1.66C210.65,195.77,275.39,199.4,316.1,197.5Z" transform="translate(0 0.18)"/><path class="cls-3" d="M312.91,197.87l3.15,1.15c-16.9,93.66-137.59,88.34-145.63-7.86l2.54.28C177.52,270.17,288.73,298.55,312.91,197.87Z" transform="translate(0 0.18)"/><path class="cls-3" d="M383.35,25.35C325.82,11.49,216-1.57,125.88,1.54c-85.23,2.94-112,9.59-112.27,9.65C.42,14.49.81,18,1.51,24.48l.14,1.35A44.3,44.3,0,0,0,4.35,36,63.61,63.61,0,0,1,7.76,48.88c.23,1.64.37,3.43.53,5.31.74,9.07,1.66,20.35,13,27.54C35.94,91,39.67,95.9,44.82,112.79c1.26,4.13,3.44,11.72,6.2,21.32,8.44,29.35,22.57,78.46,28.77,92.54,7.9,18,17.73,40.3,58.36,58.36,37.45,16.65,120.07,37.72,192.21,11.15,74.32-27.38,103.08-82.63,123.08-137.34,22-60.25,35.22-61.83,53.2-61.83H513V49.21c-32.25,0-56.31-6.53-100.43-17.35C404.35,29.84,393,27.67,383.35,25.35Zm42,84.43c-1.81,31.38-10.43,56.08-21.34,87.35l-.15.43c-7.63,21.88-34.09,73.86-114.74,84.05a278.66,278.66,0,0,1-34.92,2.2A284.23,284.23,0,0,1,148,263c-17-6.66-34.07-23.66-41.66-41.41C95.24,195.67,88.56,154.91,84.5,126.5c-5.91-41.38,2.59-87.82,44.18-94.07,79.54-11.94,172.42-5,248.46,18.65C410.28,61.38,426.94,81.67,425.32,109.78Z" transform="translate(0 0.18)"/><path class="cls-4" d="M254.65,310c-48,0-92.31-12.9-117-23.88-41.08-18.26-51-40.85-59-59C72.4,213,58.26,163.83,49.81,134.46c-2.76-9.59-4.94-17.16-6.2-21.3-5-16.52-8.68-21.35-23-30.37C8.74,75.27,7.8,63.64,7,54.29c-.15-1.86-.3-3.63-.52-5.24A62.49,62.49,0,0,0,3.16,36.46,45.17,45.17,0,0,1,.4,26L.26,24.61C-.54,17.34-.32,13.38,13.3,10c.26-.07,27.37-6.75,112.53-9.69,90.27-3.11,200.2,10,257.8,23.84h0c4.66,1.12,9.44,2.21,14.06,3.26,4.94,1.12,9.7,2.21,13.95,3.25l6.79,1.67C458.14,42.06,482.1,48,510.55,48h1.26V96.67h-5.17c-15.78,0-29.41,0-52,61.79C434.15,214.44,405,270,330.79,297.34,305.89,306.51,279.76,310,254.65,310ZM153.74,2.33c-9.43,0-18.72.15-27.82.46-84.69,2.92-111.74,9.55-112,9.61C1.79,15.45,2.07,18,2.76,24.34l.14,1.35a43.4,43.4,0,0,0,2.63,9.93A64.42,64.42,0,0,1,9,48.71c.23,1.66.38,3.47.53,5.38.72,8.79,1.61,19.73,12.46,26.58,14.95,9.44,18.76,14.49,24,31.76,1.27,4.16,3.45,11.74,6.21,21.34,8.43,29.31,22.54,78.37,28.71,92.38,7.81,17.76,17.53,39.85,57.72,57.72,37.27,16.57,119.49,37.56,191.26,11.12C403.15,268,432,213,452.26,157.6c21.65-59.17,35-63.44,54.38-63.44h2.65V50.47c-28.21-.17-52.15-6.06-91.45-15.72L411,33.08c-4.23-1-9-2.12-13.9-3.24-4.64-1.06-9.43-2.14-14.1-3.27h0C331.41,14.13,237.59,2.33,153.74,2.33ZM254.16,285.06a285,285,0,0,1-106.63-20.89c-17.23-6.74-34.65-24.05-42.37-42.09C94,196,87.33,155.15,83.26,126.67c-6-42,2.74-89.11,45.24-95.49,79.71-12,172.8-5,249,18.7,33.75,10.49,50.71,31.22,49.05,60h0c-1.83,31.55-10.46,56.33-21.4,87.69L405,198c-7.71,22.09-34.42,74.61-115.77,84.88a280.8,280.8,0,0,1-35.08,2.21ZM208.64,28a540.05,540.05,0,0,0-79.77,5.72c-40.68,6.11-49,51.86-43.12,92.64,4,28.34,10.71,69,21.73,94.77,7.47,17.47,24.32,34.22,41,40.74a282.63,282.63,0,0,0,105.72,20.72h0a278.37,278.37,0,0,0,34.76-2.19c79.95-10.1,106.15-61.56,113.71-83.22l.15-.43c10.87-31.18,19.46-55.8,21.27-87h0c1.59-27.46-14.77-47.32-47.29-57.42C325.33,36.3,266.15,28,208.64,28Z" transform="translate(0 0.18)"/></svg>