<?xml version="1.0" encoding="utf-8"?>
<!-- Generator: Adobe Illustrator 16.0.4, SVG Export Plug-In . SVG Version: 6.00 Build 0)  -->
<!DOCTYPE svg PUBLIC "-//W3C//DTD SVG 1.1//EN" "http://www.w3.org/Graphics/SVG/1.1/DTD/svg11.dtd">
<svg version="1.1" id="Layer_1" xmlns="http://www.w3.org/2000/svg" xmlns:xlink="http://www.w3.org/1999/xlink" x="0px" y="0px"
	 width="850.39px" height="283.46px" viewBox="0 0 850.39 283.46" enable-background="new 0 0 850.39 283.46" xml:space="preserve">
<g>
	<path fill="#4E6F7B" d="M198.003,103.725c-3.6-6.98-17.516-23.03-18.106-23.711l-1.51,1.312
		c0.144,0.164,14.349,16.547,17.839,23.314c2.655,5.151,2.308,17.784-1.871,24.639c-0.552,0.905-1.146,1.647-1.775,2.253
		c-0.268,0.211-0.678,0.424-1.235,0.352c-0.668-0.086-1.76-0.612-3.169-2.631c-2.148-3.077-4.076-8.753-6.31-15.323
		c-1.115-3.284-2.27-6.681-3.568-10.102c-5.444-14.341-11.744-20.177-12.01-20.418l-1.346,1.48c0.062,0.056,6.21,5.75,11.486,19.646
		c1.286,3.389,2.434,6.768,3.544,10.035c2.282,6.716,4.252,12.516,6.562,15.825c0.932,1.333,1.888,2.287,2.858,2.859
		c-0.323,0.06-0.652,0.098-0.989,0.098c-4.485,0-7.499-8.897-10.69-18.318c-0.869-2.567-1.769-5.223-2.746-7.87
		c-4.867-13.177-12.223-21.924-12.533-22.29l-1.525,1.295c0.074,0.087,7.444,8.86,12.182,21.688
		c0.969,2.622,1.863,5.264,2.729,7.818c3.576,10.559,6.664,19.677,12.584,19.677c1.993,0,3.825-0.783,5.422-2.262
		c0.035-0.027,0.082-0.059,0.112-0.084l-0.012-0.014c0.771-0.732,1.49-1.614,2.137-2.675
		C200.63,122.829,200.946,109.434,198.003,103.725z"/>
	<path fill="#4E6F7B" d="M676.183,82.712c-0.074,0.09-7.507,9.19-14.213,22.397c-1.802,3.547-3.271,7.517-4.693,11.355
		c-2.971,8.021-5.777,15.598-10.499,15.598c-0.728,0-1.409-0.175-2.055-0.516c1.241-0.198,3.124-0.958,4.736-3.538
		c0.74-1.184,1.412-3.016,2.526-6.052c1.295-3.53,3.068-8.365,6.05-15.197c5.725-13.113,14.991-23.952,15.084-24.061l-1.516-1.305
		c-0.095,0.11-9.553,11.167-15.401,24.564c-3.006,6.888-4.791,11.755-6.095,15.309c-1.032,2.814-1.715,4.674-2.344,5.682
		c-1.032,1.651-2.342,2.596-3.689,2.659c-0.843,0.03-1.633-0.292-2.104-0.886c-3.609-5.864-4.323-17.65-3.227-21.821
		c2.808-10.664,20.341-26.341,20.518-26.498l-1.328-1.494c-0.74,0.657-18.162,16.235-21.123,27.482
		c-1.212,4.604-0.452,17.141,3.552,23.521l-0.004,0.003c0.008,0.011,0.018,0.02,0.025,0.03c0.213,0.337,0.429,0.67,0.66,0.97
		c1.61,2.089,3.539,3.147,5.733,3.147c6.114,0,9.155-8.211,12.375-16.903c1.401-3.785,2.852-7.7,4.601-11.144
		c6.602-13.002,13.901-21.945,13.975-22.034L676.183,82.712z"/>
	<g>
		<path fill="#033243" d="M136.621,90.231c0-4.006-7.342-6.167-14.25-6.167s-14.25,2.161-14.25,6.167
			c0,3.613,6.525,6.666,14.25,6.666S136.621,93.844,136.621,90.231z M122.371,94.897c-7.364,0-12.25-2.809-12.25-4.666
			c0-1.74,4.66-4.167,12.25-4.167s12.25,2.427,12.25,4.167C134.621,92.088,129.735,94.897,122.371,94.897z"/>
		<path fill="#033243" d="M727.51,84.741c-6.908,0-14.25,2.161-14.25,6.167c0,3.613,6.525,6.666,14.25,6.666
			s14.25-3.053,14.25-6.666C741.76,86.902,734.418,84.741,727.51,84.741z M727.51,95.574c-7.364,0-12.25-2.809-12.25-4.666
			c0-1.74,4.66-4.167,12.25-4.167s12.25,2.427,12.25,4.167C739.76,92.765,734.874,95.574,727.51,95.574z"/>
		<path fill="#033243" d="M743.273,67.899l-0.876-0.071c-23.116-1.884-80.161-6.265-110.536-6.265
			c-35.071,0-88.226,3.707-112.943,9.695c-9.769,2.366-23.839,7.654-36.254,12.32c-11.359,4.27-22.089,8.303-25.895,8.655
			c-5.074,0.471-11.046,0.536-16.743,0.536c-2.046,0-4.172-0.01-6.379-0.019c-2.388-0.011-4.871-0.021-7.451-0.021l-3.093,0.001
			c-14.099,0-29.915-0.354-39.159-4.577c-10.541-4.816-38.834-14.712-57.459-18.652c-22.215-4.699-73.533-9.771-117.707-9.771
			c-41.87,0-86.454,5.339-99.121,6.975l-0.257,0.033C99.037,68.074,96.862,72.5,96.862,75.98v27.083c0,4.43,3.421,8.803,6.599,10.99
			c3.318,2.284,5.993,5.2,9.235,10.064c3.485,5.228,8.211,17.646,13.214,30.794c7.696,20.229,16.421,43.156,24.283,50.229
			c8.277,7.445,27.754,11.746,42.635,14.043c18.993,2.932,42.8,4.547,67.034,4.547c43.388,0,83.629-0.998,99.276-13.043
			c9.788-7.533,20.009-30.656,29.025-51.059c6.11-13.824,11.882-26.882,16.268-32.027c4.056-4.758,9.104-7.706,21.724-7.706
			c10.516,0,15.81,0.683,22.368,7.219c6.049,6.027,12.134,20.561,18.577,35.95c7.065,16.875,14.372,34.326,22.546,42.697
			c14.672,15.027,50.972,17.969,108.715,17.969c40.483,0,80.543-1.758,99.393-14.506c14.52-9.82,22.661-34.262,29.845-55.828
			c3.889-11.671,7.562-22.696,11.723-29.587c2.544-4.213,4.997-5.954,7.161-7.491c0.857-0.607,1.667-1.183,2.391-1.854
			c2.896-2.688,4.654-4.699,4.654-9.983V76.896C753.527,72.009,749.407,68.394,743.273,67.899z M751.527,104.48
			c0,4.339-1.224,5.928-4.015,8.517c-0.628,0.584-1.351,1.097-2.188,1.691c-2.208,1.567-4.957,3.519-7.717,8.088
			c-4.276,7.081-7.982,18.209-11.907,29.99c-7.083,21.264-15.111,45.363-29.068,54.803c-18.402,12.445-58.106,14.162-98.271,14.162
			c-57.21,0-93.104-2.842-107.283-17.365c-7.907-8.1-15.14-25.371-22.133-42.074c-6.521-15.574-12.681-30.287-19.01-36.592
			c-7.451-7.426-13.891-7.803-23.78-7.803c-13.344,0-18.943,3.361-23.245,8.409c-4.575,5.366-10.136,17.947-16.575,32.515
			c-8.921,20.184-19.031,43.061-28.417,50.283c-15.148,11.66-55.026,12.627-98.056,12.627c-43.919,0-94.448-5.59-108.331-18.076
			c-7.503-6.748-16.136-29.436-23.752-49.453c-5.263-13.832-9.809-25.778-13.419-31.193c-3.394-5.092-6.223-8.163-9.765-10.602
			c-2.85-1.962-5.733-5.801-5.733-9.344V75.98c0-3.894,3.632-6.335,10.794-7.258l0.257-0.033
			c12.638-1.633,57.114-6.959,98.865-6.959c44.044,0,95.177,5.05,117.293,9.729c17.847,3.775,46.46,13.68,57.041,18.514
			c9.61,4.392,25.682,4.759,39.991,4.759l3.093-0.001c2.577,0,5.058,0.011,7.442,0.021c2.211,0.009,4.339,0.019,6.388,0.019
			c5.745,0,11.772-0.066,16.929-0.544c4.072-0.378,14.426-4.27,26.413-8.775c12.36-4.646,26.37-9.911,36.021-12.249
			c24.575-5.953,77.516-9.639,112.473-9.639c30.302,0,87.282,4.377,110.374,6.259l0.878,0.071c5.032,0.406,8.414,3.221,8.414,7.003
			V104.48z"/>
		<path fill="#033243" d="M250.194,74.063c-23.928,0-81.632,1.629-100.622,16.717c-0.329,0.262-0.663,0.548-0.997,0.842
			l-0.003-0.004c-0.053,0.044-0.292,0.253-0.638,0.593c-5.739,5.368-11.74,15.289-11.74,27.853c0,8.592,1.354,23.38,5.153,39.121
			c2.947,12.207,8.393,28.947,17.597,39.375c5.438,6.158,18.684,10.891,39.371,14.064c16.566,2.541,37.358,3.941,58.547,3.941
			c49.342,0,84.955-2.83,98.383-16.637c16.699-17.17,22.949-61.738,22.949-69.531c0-8.732-2.052-17.001-12.065-28.976
			C351.801,84.291,308.461,74.063,250.194,74.063z M250.194,76.063c56.82,0,100.656,10.208,114.4,26.642
			c7.164,8.567,10.086,15.125,11.113,21.339c1.553,15.253-13.262,67.564-32.091,76.109c-19.848,9.006-54.473,10.162-82.421,10.162
			c-52.11,0-83.521-5.076-96.025-15.52c-15.412-12.869-23.475-59.289-23.475-80.564c0-13.123,7.025-20.042,8.033-20.966
			c0.365-0.326,0.728-0.634,1.087-0.919C156.979,87.45,178.997,76.063,250.194,76.063z M353.812,198.533
			c-8.098,8.326-25.446,16.031-96.949,16.031c-21.09,0-41.774-1.393-58.244-3.918c-19.927-3.057-33.128-7.695-38.174-13.412
			c-8.934-10.119-14.259-26.533-17.152-38.521c-3.759-15.568-5.098-30.172-5.098-38.65c0-4.418,0.791-8.479,2.047-12.113
			c-0.333,1.925-0.545,4.003-0.545,6.281c0,17.618,7.196,67.908,24.193,82.099c13.058,10.904,43.979,15.984,97.307,15.984
			c28.149,0,63.051-1.176,83.247-10.342c11.692-5.305,21.679-25.771,27.604-45.021C368.46,172.184,362.474,189.625,353.812,198.533z
			"/>
		<path fill="#033243" d="M600.777,74.709c-56.509,0-91.01,11.282-99.535,15.63c-16.841,8.586-25.38,19.483-25.38,32.391
			c0,2.276,0.104,4.89,0.308,7.745l-0.018,0.001c0.065,1.469,0.232,3.293,0.496,5.368c2.123,20.281,8.563,48.66,19.304,60.556
			c12.421,13.756,43.215,20.164,96.909,20.164c47.911,0,82.991-5.414,96.246-14.854c9.538-6.793,17.149-19.98,22.011-38.139
			c4.072-15.213,5.159-29.688,5.159-35.842c0-8.749,0-20.731-7.476-29.883C697.145,83.576,655.752,74.709,600.777,74.709z
			 M502.15,92.121c8.406-4.286,42.513-15.411,98.627-15.411c44.97,0,81.634,6.2,98.823,16.242l-0.002,0.005
			c0.025,0.014,2.627,1.385,5.196,5.288c2.387,3.628,5.232,10.241,5.232,21.152c0,24.203-5.683,58.007-21.698,73.617
			c-15.729,15.334-59.816,17.299-96.468,17.299c-43.053,0-71.986-4.203-83.673-12.158c-19.474-13.256-27.98-48.123-29.722-63.912
			c-0.392-4.144-0.604-8.051-0.604-11.513C477.862,110.635,486.034,100.337,502.15,92.121z M687.947,200.082
			c-12.924,9.203-47.581,14.482-95.086,14.482c-53.088,0-83.41-6.197-95.425-19.504c-4.873-5.398-9.432-15.367-13.034-28.391
			c4.926,13.102,12.275,26.068,22.661,33.139c12.02,8.18,41.343,12.504,84.798,12.504c37.03,0,81.618-2.031,97.864-17.867
			c16.461-16.045,22.302-50.455,22.302-75.048c0-8.336-1.565-14.359-3.543-18.646c5.793,8.389,5.793,19.057,5.793,26.979
			C714.277,139.052,709.809,184.514,687.947,200.082z"/>
	</g>
</g>
</svg>
